<svg width="123" height="24" viewBox="0 0 123 24" fill="none" xmlns="http://www.w3.org/2000/svg">
<path d="M6.32422 11.25H4.37891V18H0.265625V0.9375H4.37891V7.53516H5.96094L9.24219 0.9375H14.2227L9.53516 8.8125L14.8086 18H9.94531L6.32422 11.25ZM23.0234 5.32031H26.9844V18H23.0234V10.6172L19.543 18H15.5703V5.32031H19.543V12.6797L23.0234 5.32031ZM40.3906 18H36.4297V13.3008H32.9727V18H29.0234V5.32031H32.9727V10.2656H36.4297V5.32031H40.3906V18ZM42.0547 11.543C42.0547 10.2773 42.3008 9.15234 42.793 8.16797C43.2852 7.17578 43.9922 6.41406 44.9141 5.88281C45.8359 5.35156 46.918 5.08594 48.1602 5.08594C50.0586 5.08594 51.5547 5.67578 52.6484 6.85547C53.7422 8.02734 54.2891 9.625 54.2891 11.6484V11.7891C54.2891 13.7656 53.7383 15.3359 52.6367 16.5C51.543 17.6562 50.0586 18.2344 48.1836 18.2344C46.3789 18.2344 44.9297 17.6953 43.8359 16.6172C42.7422 15.5312 42.1523 14.0625 42.0664 12.2109L42.0547 11.543ZM46.0039 11.7891C46.0039 12.9609 46.1875 13.8203 46.5547 14.3672C46.9219 14.9141 47.4648 15.1875 48.1836 15.1875C49.5898 15.1875 50.3086 14.1055 50.3398 11.9414V11.543C50.3398 9.26953 49.6133 8.13281 48.1602 8.13281C46.8398 8.13281 46.125 9.11328 46.0156 11.0742L46.0039 11.7891ZM70.543 18H66.4297V4.11328H60.3008V18H56.1875V0.9375H70.543V18ZM77.9961 12.4688L80.1055 5.32031H84.3359L79.168 20.1211L78.9453 20.6602C78.2109 22.3008 76.9141 23.1211 75.0547 23.1211C74.5391 23.1211 73.9961 23.043 73.4258 22.8867V20.0625H73.9414C74.4961 20.0625 74.918 19.9805 75.207 19.8164C75.5039 19.6602 75.7227 19.375 75.8633 18.9609L76.1797 18.1172L71.7734 5.32031H75.9922L77.9961 12.4688ZM96.207 5.32031V18H92.2578V8.36719H89.8906L89.6797 12.2461C89.5312 14.168 89.0977 15.6055 88.3789 16.5586C87.6602 17.5117 86.5938 17.9922 85.1797 18H83.9375L83.8906 14.9766L84.3008 14.9297C84.8242 14.8672 85.2109 14.5195 85.4609 13.8867C85.7188 13.2461 85.8828 12.2812 85.9531 10.9922L86.1992 5.32031H96.207ZM102.594 8.80078H104.621C105.793 8.80078 106.824 8.99219 107.715 9.375C108.605 9.75781 109.285 10.3008 109.754 11.0039C110.223 11.707 110.457 12.5234 110.457 13.4531C110.457 14.8203 109.926 15.9219 108.863 16.7578C107.809 17.5859 106.367 18 104.539 18H98.6211V5.32031H102.594V8.80078ZM102.594 11.8359V14.9766H104.598C105.199 14.9766 105.668 14.8398 106.004 14.5664C106.348 14.2852 106.52 13.9062 106.52 13.4297C106.52 12.9609 106.367 12.5781 106.062 12.2812C105.758 11.9844 105.27 11.8359 104.598 11.8359H102.594ZM117.289 15.1875C117.844 15.1875 118.273 15.0391 118.578 14.7422C118.883 14.4375 119.031 14.0156 119.023 13.4766H122.727C122.727 14.8672 122.227 16.0078 121.227 16.8984C120.234 17.7891 118.953 18.2344 117.383 18.2344C115.539 18.2344 114.086 17.6562 113.023 16.5C111.961 15.3438 111.43 13.7422 111.43 11.6953V11.5312C111.43 10.25 111.664 9.12109 112.133 8.14453C112.609 7.16016 113.293 6.40625 114.184 5.88281C115.074 5.35156 116.129 5.08594 117.348 5.08594C118.996 5.08594 120.305 5.54297 121.273 6.45703C122.242 7.37109 122.727 8.60938 122.727 10.1719H119.023C119.023 9.51562 118.863 9.01172 118.543 8.66016C118.223 8.30859 117.793 8.13281 117.254 8.13281C116.23 8.13281 115.633 8.78516 115.461 10.0898C115.406 10.5039 115.379 11.0742 115.379 11.8008C115.379 13.0742 115.531 13.957 115.836 14.4492C116.141 14.9414 116.625 15.1875 117.289 15.1875Z" fill="white"/>
</svg>
